<svg xmlns="http://www.w3.org/2000/svg" xmlns:xlink="http://www.w3.org/1999/xlink" version="1.1" x="0px" y="0px" viewBox="0 0 100 125" style="enable-background:new 0 0 100 100;" xml:space="preserve"><g><path d="M30.5,71.5c0.5,0,1-0.2,1.4-0.6l35.6-35.6l0,28.3c0,1.1,0.9,2,2,2c0,0,0,0,0,0c1.1,0,2-0.9,2-2l0-33.2c0,0,0,0,0,0   c0-0.1,0-0.3,0-0.4c0,0,0-0.1,0-0.1c0-0.1,0-0.2-0.1-0.3c0,0,0-0.1-0.1-0.1c0-0.1-0.1-0.1-0.1-0.2c-0.1-0.1-0.2-0.2-0.3-0.3   c-0.1-0.1-0.2-0.2-0.3-0.3c-0.1,0-0.1-0.1-0.2-0.1c0,0-0.1-0.1-0.1-0.1c-0.1,0-0.2-0.1-0.3-0.1c0,0-0.1,0-0.1,0c-0.1,0-0.2,0-0.4,0   c0,0,0,0,0,0l-33.2,0c0,0,0,0,0,0c-1.1,0-2,0.9-2,2c0,1.1,0.9,2,2,2l28.4,0L29.1,68.1c-0.8,0.8-0.8,2,0,2.8   C29.5,71.3,30,71.5,30.5,71.5z"/></g><text x="0" y="115" fill="#000000" font-size="5px" font-weight="bold" font-family="'Helvetica Neue', Helvetica, Arial-Unicode, Arial, Sans-serif">Created by Tawny Whatmore</text><text x="0" y="120" fill="#000000" font-size="5px" font-weight="bold" font-family="'Helvetica Neue', Helvetica, Arial-Unicode, Arial, Sans-serif">from the Noun Project</text></svg>